<svg xmlns="http://www.w3.org/2000/svg" width="44" height="21" fill="none" viewBox="0 0 44 21"><path fill="#FF5B35" d="M18.012 8.986a2.33 2.33 0 0 0 2.323 2.33 2.33 2.33 0 0 0 2.324-2.33 2.33 2.33 0 0 0-2.323-2.33 2.33 2.33 0 0 0-2.324 2.33m5.641-4.326a2.33 2.33 0 0 0 2.324-2.33A2.33 2.33 0 0 0 23.653 0a2.33 2.33 0 0 0-2.324 2.33 2.33 2.33 0 0 0 2.324 2.33m0 8.649a2.33 2.33 0 0 0-2.324 2.33 2.33 2.33 0 0 0 2.324 2.33 2.33 2.33 0 0 0 2.324-2.33 2.33 2.33 0 0 0-2.324-2.33M38.892 27.96s-6.28-13.348-6.32-13.421a2.32 2.32 0 0 0-3.144-.953 2.33 2.33 0 0 0-.95 3.152l6.958 13.2a1.985 1.985 0 0 0 2.717.742 2 2 0 0 0 .739-2.72M17.013 4.66a2.33 2.33 0 0 0 2.324-2.33A2.33 2.33 0 0 0 17.013 0a2.33 2.33 0 0 0-2.324 2.33 2.33 2.33 0 0 0 2.324 2.33m13.279 0a2.33 2.33 0 0 0 0-4.66 2.33 2.33 0 0 0-2.324 2.33c0 1.286 1.04 2.33 2.324 2.33m-5.645 4.326a2.33 2.33 0 0 0 2.323 2.33 2.33 2.33 0 0 0 2.324-2.33c0-1.286-1.04-2.33-2.324-2.33a2.33 2.33 0 0 0-2.323 2.33m4.371 12.209a2.32 2.32 0 0 0-3.145-.953 2.33 2.33 0 0 0-.95 3.153l3.628 6.53a1.99 1.99 0 0 0 2.713.763 2 2 0 0 0 .76-2.72c.004.005-2.954-6.682-3.006-6.773m-7.728 4.14s-2.414 1.56-5.844 1.56c-5.213 0-11.04-4.336-11.04-11.183 0-5.331 3.714-9.06 6.92-10.242A2.33 2.33 0 0 0 12.6 2.434a2.32 2.32 0 0 0-3.028-1.278C2.475 4.283 0 10.606 0 15.64 0 24.105 6.997 31 15.442 31c4.574 0 7.913-2.248 7.913-2.248a2 2 0 0 0 .674-2.741 1.99 1.99 0 0 0-2.739-.676"/></svg>