<svg xmlns="http://www.w3.org/2000/svg" width="94" height="31" fill="none" viewBox="0 0 94 31"><path fill="#FF5B35" d="M18.012 8.986a2.33 2.33 0 0 0 2.323 2.33 2.33 2.33 0 0 0 2.324-2.33 2.33 2.33 0 0 0-2.323-2.33 2.33 2.33 0 0 0-2.324 2.33m5.641-4.326a2.33 2.33 0 0 0 2.324-2.33A2.33 2.33 0 0 0 23.653 0a2.33 2.33 0 0 0-2.324 2.33 2.33 2.33 0 0 0 2.324 2.33m0 8.649a2.33 2.33 0 0 0-2.324 2.33 2.33 2.33 0 0 0 2.324 2.33 2.33 2.33 0 0 0 2.324-2.33 2.33 2.33 0 0 0-2.324-2.33M38.892 27.96s-6.28-13.348-6.32-13.421a2.32 2.32 0 0 0-3.144-.953 2.33 2.33 0 0 0-.95 3.152l6.958 13.2a1.985 1.985 0 0 0 2.717.742 2 2 0 0 0 .739-2.72M17.013 4.66a2.33 2.33 0 0 0 2.324-2.33A2.33 2.33 0 0 0 17.013 0a2.33 2.33 0 0 0-2.324 2.33 2.33 2.33 0 0 0 2.324 2.33m13.279 0a2.33 2.33 0 0 0 0-4.66 2.33 2.33 0 0 0-2.324 2.33c0 1.286 1.04 2.33 2.324 2.33m-5.645 4.326a2.33 2.33 0 0 0 2.323 2.33 2.33 2.33 0 0 0 2.324-2.33c0-1.286-1.04-2.33-2.324-2.33a2.33 2.33 0 0 0-2.323 2.33m4.371 12.209a2.32 2.32 0 0 0-3.145-.953 2.33 2.33 0 0 0-.95 3.153l3.628 6.53a1.99 1.99 0 0 0 2.713.763 2 2 0 0 0 .76-2.72c.004.005-2.954-6.682-3.006-6.773m-7.728 4.14s-2.414 1.56-5.844 1.56c-5.213 0-11.04-4.336-11.04-11.183 0-5.331 3.714-9.06 6.92-10.242A2.33 2.33 0 0 0 12.6 2.434a2.32 2.32 0 0 0-3.028-1.278C2.475 4.283 0 10.606 0 15.64 0 24.105 6.997 31 15.442 31c4.574 0 7.913-2.248 7.913-2.248a2 2 0 0 0 .674-2.741 1.99 1.99 0 0 0-2.739-.676"/><path fill="#000" d="M49.28 7.531c0 .546-.312.996-1.435.996-1.119 0-1.434-.45-1.434-.996v-2.75c0-.545.311-.996 1.434-.996s1.434.45 1.434.996v.347c0 .073-.026.108-.095.108h-.272c-.073 0-.104-.035-.104-.108v-.273c0-.394-.237-.654-.959-.654-.72 0-.958.26-.958.654v2.603c0 .394.237.654.959.654.72 0 .958-.26.958-.654v-.36c0-.07.026-.104.104-.104h.272c.07 0 .095.035.095.104zm1.46.94q-.088 0-.087-.104V3.941c0-.07.026-.104.095-.104h2.316c.069 0 .103.026.103.104v.212c0 .074-.034.104-.104.104H51.13v1.585h1.814c.073 0 .103.026.103.104v.2c0 .073-.026.103-.103.103H51.13v1.806h2.017c.069 0 .103.026.103.096v.216c0 .074-.034.104-.103.104zm6.803-.104c0 .07-.022.104-.095.104h-.26c-.047 0-.073-.013-.095-.048l-1.8-3.2a4 4 0 0 1-.23-.442v3.59c0 .07-.026.104-.095.104h-.259c-.073 0-.104-.034-.104-.104v-4.43c0-.07.026-.104.104-.104h.26c.047 0 .068.013.081.039l1.84 3.248c.057.095.203.407.203.407v-3.59c0-.07.026-.104.095-.104h.26c.073 0 .095.035.095.104zm4.077-4.526c.07 0 .1.026.1.104v.213c0 .073-.034.103-.1.103h-1.165v4.115c0 .069-.026.104-.095.104h-.294c-.074 0-.104-.035-.104-.104V4.26h-1.166c-.073 0-.104-.026-.104-.103V3.94c0-.074.026-.104.104-.104h2.825zm1.728.412V6.17h.96c.725 0 .992-.26.992-.662v-.607c0-.394-.263-.654-.993-.654h-.959zm0 2.33v1.784c0 .07-.021.104-.095.104h-.285c-.069 0-.095-.035-.095-.104V3.941q-.002-.104.086-.104h1.344c1.127 0 1.473.45 1.473.996v.762c0 .42-.212.789-.843.927l.882 1.845c.026.06-.022.104-.096.104h-.285c-.073 0-.086-.039-.12-.104l-.843-1.784zm6.319-1.728c0-.394-.272-.654-.993-.654-.713 0-.985.26-.985.654v2.603c0 .394.272.654.985.654.721 0 .993-.26.993-.654zm-2.462-.074c0-.545.354-.996 1.464-.996 1.128 0 1.473.45 1.473.996v2.75c0 .546-.345.996-1.473.996-1.114 0-1.464-.45-1.464-.996zm6.907-.528v3.802h.985c.725 0 .993-.26.993-.654v-2.49c0-.394-.263-.654-.993-.654h-.985zm-.393 4.218c-.06 0-.082-.035-.082-.104V3.941q-.002-.104.086-.104h1.374c1.118 0 1.473.45 1.473.996v2.642c0 .546-.355.992-1.473.992h-1.378zm4.501 0q-.088 0-.086-.104V3.941c0-.07.026-.104.095-.104h2.315c.07 0 .104.026.104.104v.212c0 .074-.035.104-.104.104h-1.935v1.585h1.814c.073 0 .104.026.104.104v.2c0 .073-.026.103-.104.103H78.61v1.806h2.017c.07 0 .104.026.104.096v.216c0 .074-.035.104-.104.104zm-31.126 8.783c0 .095-.026.134-.12.134h-.416c-.086 0-.12-.039-.12-.134v-4.357c0-.095.034-.138.12-.138h.415c.095 0 .121.039.121.138zm4.605.009c0 .086-.026.13-.121.13h-.372c-.069 0-.095-.022-.12-.061l-1.599-2.806c-.15-.252-.229-.464-.246-.49v3.227c0 .086-.034.13-.12.13h-.38c-.087 0-.122-.04-.122-.13v-4.374c0-.087.035-.13.121-.13h.38c.056 0 .087.021.108.056l1.637 2.867c.095.165.212.437.212.437v-3.226c0-.087.039-.13.13-.13h.37c.096 0 .122.039.122.13zm2.578.13c-.086 0-.134-.04-.164-.13l-1.318-4.374c-.025-.087.01-.13.096-.13h.453c.087 0 .121.047.151.13l.843 2.828c.086.286.155.831.155.831s.095-.571.168-.818l.851-2.841c.026-.083.06-.13.152-.13h.414c.095 0 .13.039.104.13l-1.318 4.374c-.025.09-.073.13-.164.13zm3.123 0c-.087 0-.122-.04-.122-.135v-4.36c0-.096.035-.135.121-.135h2.324c.087 0 .13.035.13.13v.307c0 .096-.04.13-.13.13h-1.788v1.377h1.663c.095 0 .134.035.134.13v.295c0 .087-.04.13-.134.13h-1.663v1.572h1.861c.087 0 .13.026.13.121v.312c0 .095-.039.13-.13.13H57.4zm6.039-3.547c0-.368-.225-.58-.82-.58-.597 0-.822.212-.822.58v.134c0 .312.204.403.346.455l1.235.472c.406.156.748.42.748.927v.563c0 .558-.39 1.048-1.52 1.048-1.137 0-1.53-.49-1.53-1.049v-.394c0-.095.039-.134.13-.134h.401c.087 0 .121.04.121.134v.308c0 .368.26.58.869.58s.876-.212.876-.58v-.32c0-.343-.306-.455-.57-.56l-1.149-.441c-.298-.117-.604-.424-.604-.844v-.39c0-.559.354-1.048 1.46-1.048s1.472.489 1.472 1.048v.299c0 .086-.034.13-.12.13h-.402c-.095 0-.121-.04-.121-.13zm4.513-1.083c.087 0 .13.035.13.13v.307c0 .096-.039.13-.13.13h-1.088v3.928c0 .096-.035.135-.121.135h-.419c-.086 0-.121-.04-.121-.135V13.33h-1.084c-.095 0-.13-.034-.13-.13v-.307c0-.095.035-.13.13-.13zm1.863 4.491c0 .095-.026.134-.121.134h-.415c-.09 0-.12-.039-.12-.134v-4.357c0-.095.034-.138.12-.138h.415c.095 0 .12.039.12.138zm4.319-2.178c.086 0 .13.034.13.12v1.2c0 .56-.334 1.049-1.504 1.049-1.166 0-1.503-.49-1.503-1.049v-2.641c0-.559.332-1.048 1.503-1.048s1.503.489 1.503 1.048v.299c0 .086-.034.13-.12.13h-.394c-.095 0-.13-.04-.13-.13v-.191c0-.368-.237-.593-.85-.593-.61 0-.843.225-.843.593v2.425c0 .368.23.594.843.594.604 0 .85-.217.85-.585v-.654h-.807c-.09 0-.13-.035-.13-.13v-.312c0-.086.04-.121.13-.121h1.322zm2.941-.641c-.082-.252-.178-.918-.182-.996-.013.06-.103.688-.19.978l-.389 1.252h1.14zm.038-1.676c.087 0 .134.039.165.13l1.317 4.374c.026.082-.009.13-.104.13h-.427c-.087 0-.13-.048-.151-.13l-.32-1.057h-1.434l-.311 1.057c-.022.082-.06.13-.151.13h-.393c-.087 0-.121-.048-.095-.13l1.317-4.374c.026-.087.074-.13.164-.13zm5.44 3.638c0 .558-.333 1.048-1.5 1.048-1.165 0-1.502-.49-1.502-1.049v-2.641c0-.559.332-1.048 1.503-1.048 1.166 0 1.499.489 1.499 1.048v.333c0 .096-.035.135-.121.135h-.393c-.095 0-.13-.04-.13-.135v-.225c0-.368-.237-.593-.85-.593-.61 0-.843.225-.843.593v2.425c0 .368.229.594.842.594.614 0 .851-.226.851-.594v-.32c0-.087.035-.13.13-.13h.393c.086 0 .12.039.12.13zm1.935.857c0 .095-.026.134-.121.134h-.415c-.09 0-.12-.039-.12-.134v-4.357c0-.095.034-.138.12-.138h.415c.095 0 .12.039.12.138zm3.225-4.95c-.021.034-.069.082-.164.082h-.311c-.082 0-.117-.034-.07-.121l.403-.728c.043-.073.09-.121.177-.121h.419c.095 0 .116.056.069.13zm.644 1.559c0-.368-.272-.593-.881-.593-.605 0-.877.225-.877.593v2.425c0 .368.272.593.877.593.609 0 .88-.225.88-.593zm-2.423-.108c0-.559.38-1.048 1.542-1.048 1.166 0 1.55.489 1.55 1.048v2.641c0 .56-.38 1.049-1.55 1.049-1.162 0-1.542-.49-1.542-1.049zm7.619 3.508c0 .086-.026.13-.12.13h-.372c-.07 0-.095-.022-.121-.061l-1.598-2.806c-.151-.252-.23-.464-.246-.49v3.227c0 .086-.035.13-.121.13h-.38c-.087 0-.121-.04-.121-.13v-4.374c0-.087.034-.13.12-.13h.38q.08.002.109.056l1.637 2.867c.095.165.211.437.211.437v-3.226c0-.087.04-.13.13-.13h.371c.095 0 .121.039.121.13zm-46.968 9.051q-.088 0-.086-.104v-4.426c0-.07.026-.104.095-.104h2.315c.07 0 .104.026.104.104v.212c0 .074-.035.104-.104.104h-1.935v1.585h1.814c.074 0 .104.026.104.104v.2c0 .073-.026.103-.104.103h-1.814v1.806h2.017c.07 0 .104.026.104.096v.216c0 .074-.035.104-.104.104zm6.401-.138c0 .095-.026.134-.121.134h-.415c-.09 0-.12-.04-.12-.134v-4.357c0-.095.034-.134.12-.134h.415c.095 0 .12.039.12.134zm4.604.008c0 .087-.025.13-.12.13h-.372c-.07 0-.095-.021-.12-.06l-1.6-2.807c-.15-.251-.228-.463-.245-.49v3.227c0 .087-.035.13-.121.13h-.38c-.087 0-.121-.039-.121-.13V21.81c0-.09.034-.13.12-.13h.38c.057 0 .087.022.109.056l1.637 2.867a5 5 0 0 1 .212.438v-3.227c0-.09.038-.13.13-.13h.37c.096 0 .121.04.121.13zm4.605 0c0 .087-.026.13-.121.13h-.371c-.07 0-.096-.021-.121-.06l-1.599-2.807c-.15-.251-.228-.463-.246-.49v3.227c0 .087-.034.13-.12.13h-.38c-.087 0-.122-.039-.122-.13V21.81c0-.09.035-.13.121-.13h.38c.056 0 .087.022.108.056l1.637 2.867a5 5 0 0 1 .212.438v-3.227c0-.09.039-.13.13-.13h.371c.095 0 .121.04.121.13zm3.87-3.399c0-.369-.272-.594-.881-.594-.605 0-.877.225-.877.594v2.425c0 .368.272.593.877.593.609 0 .88-.225.88-.593zm-2.423-.109c0-.558.38-1.048 1.542-1.048 1.166 0 1.55.49 1.55 1.048v2.642c0 .559-.38 1.048-1.55 1.048-1.162 0-1.542-.49-1.542-1.048zm5.564 3.638c-.087 0-.134-.039-.164-.13l-1.318-4.374c-.026-.086.009-.13.095-.13h.454c.086 0 .12.048.151.13l.842 2.828c.087.286.156.832.156.832s.095-.572.168-.819l.851-2.84c.026-.083.06-.13.151-.13h.415c.095 0 .13.038.104.13l-1.318 4.373c-.026.091-.073.13-.164.13zm4.077-2.958c-.082-.251-.177-.918-.182-.996-.013.06-.103.689-.19.979l-.389 1.252h1.14zm.043-1.676c.086 0 .134.04.164.13l1.317 4.374c.026.082-.008.13-.103.13h-.428c-.09 0-.13-.047-.151-.13l-.32-1.056h-1.434l-.31 1.056c-.022.082-.061.13-.152.13h-.393c-.09 0-.12-.047-.095-.13l1.317-4.374c.026-.086.074-.13.165-.13zm5.439 3.638c0 .559-.333 1.048-1.5 1.048-1.17 0-1.502-.49-1.502-1.048v-2.642c0-.558.332-1.048 1.503-1.048 1.166 0 1.499.49 1.499 1.048v.334c0 .095-.035.134-.121.134h-.393c-.095 0-.13-.039-.13-.134v-.226c0-.368-.237-.593-.85-.593-.61 0-.843.225-.843.594v2.425c0 .368.233.593.842.593.61 0 .851-.225.851-.593v-.32c0-.087.035-.13.13-.13h.393c.086 0 .12.038.12.13zm1.934.858c0 .095-.026.134-.121.134h-.415c-.09 0-.121-.04-.121-.134v-4.357c0-.095.034-.134.12-.134h.416c.095 0 .12.039.12.134zm3.227-4.951c-.022.035-.069.083-.164.083h-.311c-.082 0-.117-.035-.07-.122l.403-.727c.043-.074.086-.122.177-.122h.419c.095 0 .116.057.069.13zm.644 1.56c0-.369-.272-.594-.881-.594-.605 0-.877.225-.877.593v2.426c0 .368.272.593.877.593.609 0 .88-.225.88-.593zm-2.423-.109c0-.558.38-1.048 1.541-1.048 1.167 0 1.551.49 1.551 1.048v2.642c0 .559-.38 1.048-1.55 1.048-1.162 0-1.542-.49-1.542-1.048zm7.619 3.508c0 .087-.026.13-.121.13h-.376c-.07 0-.095-.021-.121-.06l-1.598-2.807c-.151-.251-.23-.463-.246-.49v3.227c0 .087-.035.13-.121.13h-.38c-.087 0-.121-.039-.121-.13V21.81c0-.09.034-.13.12-.13h.38c.057 0 .087.022.109.056l1.637 2.867c.095.165.211.438.211.438v-3.227c0-.09.044-.13.13-.13h.376c.095 0 .12.04.12.13z"/></svg>